<mxfile host="app.diagrams.net" modified="2022-03-20T04:14:05.764Z" agent="5.0 (Windows NT 10.0; Win64; x64) AppleWebKit/537.36 (KHTML, like Gecko) Chrome/99.0.4844.51 Safari/537.36 Edg/99.0.1150.39" etag="wnQaFnFI8NwdC7XA19EW" version="17.1.3" type="github">
  <diagram id="k-0yNiBUj6GDruLnqVy1" name="依赖导致原则">
    <mxGraphModel dx="868" dy="460" grid="1" gridSize="10" guides="1" tooltips="1" connect="1" arrows="1" fold="1" page="1" pageScale="1" pageWidth="827" pageHeight="1169" math="0" shadow="0">
      <root>
        <mxCell id="0" />
        <mxCell id="1" parent="0" />
        <mxCell id="GysFzHXSYcvOhyuQ0_eI-1" value="抽象类" style="swimlane;fontStyle=1;align=center;verticalAlign=top;childLayout=stackLayout;horizontal=1;startSize=26;horizontalStack=0;resizeParent=1;resizeParentMax=0;resizeLast=0;collapsible=1;marginBottom=0;fillColor=#e1d5e7;strokeColor=#9673a6;sketch=1;" vertex="1" parent="1">
          <mxGeometry x="39" y="852" width="160" height="86" as="geometry" />
        </mxCell>
        <mxCell id="GysFzHXSYcvOhyuQ0_eI-2" value="+ 权重算法抽奖()" style="text;strokeColor=none;fillColor=none;align=left;verticalAlign=top;spacingLeft=4;spacingRight=4;overflow=hidden;rotatable=0;points=[[0,0.5],[1,0.5]];portConstraint=eastwest;" vertex="1" parent="GysFzHXSYcvOhyuQ0_eI-1">
          <mxGeometry y="26" width="160" height="26" as="geometry" />
        </mxCell>
        <mxCell id="GysFzHXSYcvOhyuQ0_eI-3" value="" style="line;strokeWidth=1;fillColor=none;align=left;verticalAlign=middle;spacingTop=-1;spacingLeft=3;spacingRight=3;rotatable=0;labelPosition=right;points=[];portConstraint=eastwest;" vertex="1" parent="GysFzHXSYcvOhyuQ0_eI-1">
          <mxGeometry y="52" width="160" height="8" as="geometry" />
        </mxCell>
        <mxCell id="GysFzHXSYcvOhyuQ0_eI-4" value="+ 随机算法抽奖" style="text;strokeColor=none;fillColor=none;align=left;verticalAlign=top;spacingLeft=4;spacingRight=4;overflow=hidden;rotatable=0;points=[[0,0.5],[1,0.5]];portConstraint=eastwest;" vertex="1" parent="GysFzHXSYcvOhyuQ0_eI-1">
          <mxGeometry y="60" width="160" height="26" as="geometry" />
        </mxCell>
        <mxCell id="GysFzHXSYcvOhyuQ0_eI-5" value="抽奖接口" style="swimlane;fontStyle=1;align=center;verticalAlign=top;childLayout=stackLayout;horizontal=1;startSize=26;horizontalStack=0;resizeParent=1;resizeParentMax=0;resizeLast=0;collapsible=1;marginBottom=0;sketch=1;fillColor=#dae8fc;strokeColor=#6c8ebf;" vertex="1" parent="1">
          <mxGeometry x="518" y="800" width="160" height="52" as="geometry">
            <mxRectangle x="380" y="720" width="80" height="26" as="alternateBounds" />
          </mxGeometry>
        </mxCell>
        <mxCell id="GysFzHXSYcvOhyuQ0_eI-6" value="+ 抽奖方法()" style="text;strokeColor=none;fillColor=none;align=left;verticalAlign=top;spacingLeft=4;spacingRight=4;overflow=hidden;rotatable=0;points=[[0,0.5],[1,0.5]];portConstraint=eastwest;sketch=1;" vertex="1" parent="GysFzHXSYcvOhyuQ0_eI-5">
          <mxGeometry y="26" width="160" height="26" as="geometry" />
        </mxCell>
        <mxCell id="GysFzHXSYcvOhyuQ0_eI-16" value="权重抽奖" style="swimlane;fontStyle=1;align=center;verticalAlign=top;childLayout=stackLayout;horizontal=1;startSize=26;horizontalStack=0;resizeParent=1;resizeParentMax=0;resizeLast=0;collapsible=1;marginBottom=0;sketch=1;fillColor=#ffe6cc;strokeColor=#d79b00;" vertex="1" parent="1">
          <mxGeometry x="408" y="910" width="160" height="52" as="geometry">
            <mxRectangle x="380" y="720" width="80" height="26" as="alternateBounds" />
          </mxGeometry>
        </mxCell>
        <mxCell id="GysFzHXSYcvOhyuQ0_eI-17" value="+ 抽奖方法()" style="text;strokeColor=none;fillColor=none;align=left;verticalAlign=top;spacingLeft=4;spacingRight=4;overflow=hidden;rotatable=0;points=[[0,0.5],[1,0.5]];portConstraint=eastwest;sketch=1;" vertex="1" parent="GysFzHXSYcvOhyuQ0_eI-16">
          <mxGeometry y="26" width="160" height="26" as="geometry" />
        </mxCell>
        <mxCell id="GysFzHXSYcvOhyuQ0_eI-18" value="随机抽奖" style="swimlane;fontStyle=1;align=center;verticalAlign=top;childLayout=stackLayout;horizontal=1;startSize=26;horizontalStack=0;resizeParent=1;resizeParentMax=0;resizeLast=0;collapsible=1;marginBottom=0;sketch=1;fillColor=#fff2cc;strokeColor=#d6b656;" vertex="1" parent="1">
          <mxGeometry x="628" y="910" width="160" height="52" as="geometry">
            <mxRectangle x="380" y="720" width="80" height="26" as="alternateBounds" />
          </mxGeometry>
        </mxCell>
        <mxCell id="GysFzHXSYcvOhyuQ0_eI-19" value="+ 抽奖方法()" style="text;strokeColor=none;fillColor=none;align=left;verticalAlign=top;spacingLeft=4;spacingRight=4;overflow=hidden;rotatable=0;points=[[0,0.5],[1,0.5]];portConstraint=eastwest;sketch=1;" vertex="1" parent="GysFzHXSYcvOhyuQ0_eI-18">
          <mxGeometry y="26" width="160" height="26" as="geometry" />
        </mxCell>
        <mxCell id="GysFzHXSYcvOhyuQ0_eI-24" value="" style="endArrow=block;dashed=1;endFill=0;endSize=12;html=1;rounded=0;fontFamily=Helvetica;fontSize=12;fontColor=default;exitX=0.5;exitY=0;exitDx=0;exitDy=0;sketch=1;edgeStyle=orthogonalEdgeStyle;" edge="1" parent="1" source="GysFzHXSYcvOhyuQ0_eI-16" target="GysFzHXSYcvOhyuQ0_eI-6">
          <mxGeometry width="160" relative="1" as="geometry">
            <mxPoint x="508" y="967" as="sourcePoint" />
            <mxPoint x="588" y="860" as="targetPoint" />
            <Array as="points">
              <mxPoint x="488" y="880" />
              <mxPoint x="598" y="880" />
            </Array>
          </mxGeometry>
        </mxCell>
        <mxCell id="GysFzHXSYcvOhyuQ0_eI-25" value="" style="endArrow=block;dashed=1;endFill=0;endSize=12;html=1;rounded=0;fontFamily=Helvetica;fontSize=12;fontColor=default;exitX=0.5;exitY=0;exitDx=0;exitDy=0;entryX=0.481;entryY=1;entryDx=0;entryDy=0;entryPerimeter=0;sketch=1;edgeStyle=orthogonalEdgeStyle;" edge="1" parent="1" source="GysFzHXSYcvOhyuQ0_eI-18" target="GysFzHXSYcvOhyuQ0_eI-6">
          <mxGeometry width="160" relative="1" as="geometry">
            <mxPoint x="478" y="920" as="sourcePoint" />
            <mxPoint x="598" y="860" as="targetPoint" />
            <Array as="points">
              <mxPoint x="708" y="881" />
              <mxPoint x="595" y="881" />
            </Array>
          </mxGeometry>
        </mxCell>
        <mxCell id="GysFzHXSYcvOhyuQ0_eI-29" value="" style="endArrow=classic;html=1;rounded=0;shadow=1;sketch=1;fontFamily=Helvetica;fontSize=12;fontColor=default;startSize=26;" edge="1" parent="1">
          <mxGeometry width="50" height="50" relative="1" as="geometry">
            <mxPoint x="240" y="890" as="sourcePoint" />
            <mxPoint x="390" y="890" as="targetPoint" />
          </mxGeometry>
        </mxCell>
        <mxCell id="GysFzHXSYcvOhyuQ0_eI-30" value="面向接口编程" style="edgeLabel;html=1;align=center;verticalAlign=middle;resizable=0;points=[];fontSize=14;fontFamily=Helvetica;fontColor=default;" vertex="1" connectable="0" parent="GysFzHXSYcvOhyuQ0_eI-29">
          <mxGeometry x="-0.1467" relative="1" as="geometry">
            <mxPoint as="offset" />
          </mxGeometry>
        </mxCell>
      </root>
    </mxGraphModel>
  </diagram>
</mxfile>
